<?xml version="1.0" encoding="UTF-8"?>
<svg xmlns="http://www.w3.org/2000/svg" version="1.1" width="100" height="100" viewBox="0 0 100 100"><rect x="0" y="0" width="100" height="100" fill="#ffffff"/><g transform="scale(4)"><g transform="translate(0,0)"><path fill-rule="evenodd" d="M8 0L8 1L9 1L9 2L10 2L10 3L11 3L11 1L13 1L13 2L12 2L12 4L11 4L11 5L10 5L10 4L9 4L9 5L10 5L10 8L9 8L9 6L8 6L8 8L9 8L9 9L7 9L7 8L6 8L6 9L5 9L5 8L3 8L3 9L2 9L2 8L0 8L0 10L1 10L1 11L0 11L0 12L6 12L6 13L7 13L7 14L6 14L6 15L4 15L4 13L2 13L2 14L1 14L1 13L0 13L0 17L1 17L1 15L2 15L2 16L4 16L4 17L7 17L7 16L8 16L8 18L10 18L10 19L12 19L12 20L11 20L11 21L10 21L10 24L11 24L11 25L12 25L12 24L13 24L13 23L12 23L12 22L13 22L13 21L12 21L12 20L14 20L14 19L12 19L12 18L10 18L10 17L13 17L13 18L14 18L14 17L15 17L15 18L16 18L16 20L15 20L15 21L18 21L18 22L20 22L20 23L17 23L17 22L16 22L16 23L17 23L17 24L15 24L15 23L14 23L14 24L15 24L15 25L19 25L19 24L21 24L21 25L22 25L22 24L24 24L24 25L25 25L25 21L23 21L23 22L22 22L22 20L21 20L21 19L22 19L22 18L21 18L21 15L22 15L22 17L23 17L23 18L24 18L24 19L23 19L23 20L24 20L24 19L25 19L25 18L24 18L24 16L25 16L25 14L24 14L24 13L25 13L25 10L24 10L24 9L25 9L25 8L24 8L24 9L20 9L20 10L21 10L21 12L24 12L24 13L23 13L23 14L21 14L21 13L19 13L19 12L16 12L16 10L18 10L18 11L19 11L19 10L18 10L18 9L19 9L19 8L18 8L18 9L16 9L16 8L15 8L15 6L14 6L14 7L13 7L13 5L12 5L12 4L16 4L16 3L17 3L17 2L16 2L16 3L14 3L14 2L15 2L15 1L13 1L13 0L11 0L11 1L9 1L9 0ZM16 0L16 1L17 1L17 0ZM11 5L11 7L12 7L12 8L13 8L13 10L12 10L12 9L10 9L10 10L9 10L9 11L8 11L8 10L7 10L7 9L6 9L6 10L7 10L7 11L6 11L6 12L7 12L7 13L9 13L9 14L10 14L10 15L9 15L9 16L14 16L14 15L15 15L15 16L16 16L16 15L15 15L15 13L16 13L16 14L18 14L18 15L17 15L17 16L20 16L20 15L21 15L21 14L19 14L19 13L16 13L16 12L15 12L15 11L14 11L14 10L15 10L15 8L13 8L13 7L12 7L12 5ZM16 6L16 7L17 7L17 6ZM3 9L3 10L2 10L2 11L5 11L5 10L4 10L4 9ZM10 10L10 11L9 11L9 13L10 13L10 12L11 12L11 11L12 11L12 13L13 13L13 14L12 14L12 15L14 15L14 13L15 13L15 12L14 12L14 13L13 13L13 11L12 11L12 10ZM22 10L22 11L24 11L24 10ZM7 14L7 15L6 15L6 16L7 16L7 15L8 15L8 14ZM23 15L23 16L24 16L24 15ZM17 17L17 20L20 20L20 17ZM18 18L18 19L19 19L19 18ZM8 20L8 22L9 22L9 20ZM20 21L20 22L21 22L21 24L22 24L22 22L21 22L21 21ZM8 23L8 25L9 25L9 23ZM11 23L11 24L12 24L12 23ZM0 0L0 7L7 7L7 0ZM1 1L1 6L6 6L6 1ZM2 2L2 5L5 5L5 2ZM18 0L18 7L25 7L25 0ZM19 1L19 6L24 6L24 1ZM20 2L20 5L23 5L23 2ZM0 18L0 25L7 25L7 18ZM1 19L1 24L6 24L6 19ZM2 20L2 23L5 23L5 20Z" fill="#000000"/></g></g></svg>
