<?xml version="1.0" encoding="UTF-8"?>
<svg xmlns="http://www.w3.org/2000/svg" version="1.1" width="100" height="100" viewBox="0 0 100 100"><rect x="0" y="0" width="100" height="100" fill="#ffffff"/><g transform="scale(4)"><g transform="translate(0,0)"><path fill-rule="evenodd" d="M8 0L8 2L9 2L9 3L10 3L10 4L8 4L8 9L9 9L9 10L10 10L10 9L12 9L12 10L11 10L11 12L12 12L12 13L11 13L11 15L10 15L10 14L9 14L9 13L10 13L10 11L9 11L9 12L8 12L8 11L7 11L7 10L6 10L6 9L7 9L7 8L5 8L5 9L4 9L4 10L1 10L1 11L2 11L2 13L1 13L1 12L0 12L0 13L1 13L1 14L0 14L0 15L3 15L3 16L0 16L0 17L3 17L3 16L4 16L4 17L8 17L8 18L9 18L9 17L8 17L8 15L10 15L10 16L11 16L11 17L10 17L10 18L11 18L11 19L10 19L10 20L9 20L9 19L8 19L8 20L9 20L9 21L11 21L11 23L10 23L10 22L8 22L8 25L9 25L9 24L12 24L12 25L13 25L13 23L12 23L12 22L14 22L14 21L12 21L12 20L13 20L13 18L14 18L14 17L15 17L15 18L16 18L16 20L15 20L15 19L14 19L14 20L15 20L15 21L16 21L16 22L17 22L17 21L19 21L19 24L17 24L17 23L16 23L16 24L15 24L15 25L19 25L19 24L21 24L21 25L22 25L22 24L21 24L21 22L23 22L23 23L25 23L25 22L24 22L24 21L22 21L22 20L21 20L21 19L22 19L22 18L23 18L23 17L24 17L24 19L23 19L23 20L25 20L25 17L24 17L24 16L23 16L23 17L22 17L22 18L21 18L21 16L19 16L19 15L18 15L18 16L14 16L14 17L13 17L13 15L17 15L17 14L16 14L16 13L18 13L18 14L19 14L19 11L20 11L20 10L19 10L19 9L21 9L21 12L22 12L22 11L23 11L23 10L24 10L24 11L25 11L25 8L23 8L23 10L22 10L22 9L21 9L21 8L17 8L17 10L16 10L16 8L14 8L14 10L13 10L13 8L11 8L11 6L10 6L10 4L11 4L11 5L12 5L12 7L13 7L13 5L14 5L14 3L15 3L15 4L16 4L16 7L17 7L17 2L16 2L16 3L15 3L15 2L13 2L13 1L12 1L12 0L10 0L10 1L9 1L9 0ZM16 0L16 1L17 1L17 0ZM11 1L11 2L12 2L12 3L11 3L11 4L12 4L12 5L13 5L13 4L12 4L12 3L13 3L13 2L12 2L12 1ZM9 6L9 8L10 8L10 6ZM14 6L14 7L15 7L15 6ZM0 8L0 9L3 9L3 8ZM4 10L4 11L5 11L5 12L4 12L4 13L2 13L2 14L4 14L4 16L5 16L5 15L6 15L6 16L7 16L7 15L6 15L6 14L8 14L8 12L7 12L7 11L6 11L6 10ZM12 10L12 11L13 11L13 13L12 13L12 15L11 15L11 16L12 16L12 15L13 15L13 14L14 14L14 12L15 12L15 13L16 13L16 12L15 12L15 11L13 11L13 10ZM17 10L17 11L18 11L18 10ZM6 12L6 13L7 13L7 12ZM24 12L24 13L23 13L23 14L20 14L20 15L23 15L23 14L24 14L24 15L25 15L25 12ZM17 17L17 20L20 20L20 17ZM18 18L18 19L19 19L19 18ZM11 19L11 20L12 20L12 19ZM24 24L24 25L25 25L25 24ZM0 0L0 7L7 7L7 0ZM1 1L1 6L6 6L6 1ZM2 2L2 5L5 5L5 2ZM18 0L18 7L25 7L25 0ZM19 1L19 6L24 6L24 1ZM20 2L20 5L23 5L23 2ZM0 18L0 25L7 25L7 18ZM1 19L1 24L6 24L6 19ZM2 20L2 23L5 23L5 20Z" fill="#000000"/></g></g></svg>
