<?xml version="1.0" encoding="UTF-8"?>
<svg xmlns="http://www.w3.org/2000/svg" version="1.1" width="100" height="100" viewBox="0 0 100 100"><rect x="0" y="0" width="100" height="100" fill="#ffffff"/><g transform="scale(3.448)"><g transform="translate(0,0)"><path fill-rule="evenodd" d="M9 0L9 1L8 1L8 2L9 2L9 3L8 3L8 4L10 4L10 7L11 7L11 4L12 4L12 5L13 5L13 6L12 6L12 9L13 9L13 8L14 8L14 9L15 9L15 10L17 10L17 11L16 11L16 12L17 12L17 14L16 14L16 13L12 13L12 11L13 11L13 10L11 10L11 11L10 11L10 9L11 9L11 8L6 8L6 9L5 9L5 8L0 8L0 9L4 9L4 10L2 10L2 11L1 11L1 10L0 10L0 12L1 12L1 16L3 16L3 17L2 17L2 18L3 18L3 19L2 19L2 20L3 20L3 21L4 21L4 19L5 19L5 17L7 17L7 18L6 18L6 19L7 19L7 20L5 20L5 21L8 21L8 23L9 23L9 21L10 21L10 20L11 20L11 21L12 21L12 22L13 22L13 23L12 23L12 25L13 25L13 24L14 24L14 25L15 25L15 24L16 24L16 25L17 25L17 26L15 26L15 27L14 27L14 28L15 28L15 29L16 29L16 28L15 28L15 27L18 27L18 26L19 26L19 23L20 23L20 27L19 27L19 28L22 28L22 27L23 27L23 26L24 26L24 27L26 27L26 26L24 26L24 25L27 25L27 28L24 28L24 29L27 29L27 28L28 28L28 26L29 26L29 25L28 25L28 24L25 24L25 23L27 23L27 22L29 22L29 20L28 20L28 19L27 19L27 16L28 16L28 15L27 15L27 12L28 12L28 11L27 11L27 12L25 12L25 9L26 9L26 8L25 8L25 9L24 9L24 8L23 8L23 9L22 9L22 8L20 8L20 9L18 9L18 8L17 8L17 9L16 9L16 7L17 7L17 6L18 6L18 7L19 7L19 6L18 6L18 5L20 5L20 3L21 3L21 0L19 0L19 1L17 1L17 0L15 0L15 1L17 1L17 2L16 2L16 4L12 4L12 2L13 2L13 1L11 1L11 2L10 2L10 0ZM19 1L19 2L17 2L17 3L18 3L18 4L19 4L19 2L20 2L20 1ZM14 2L14 3L15 3L15 2ZM10 3L10 4L11 4L11 3ZM16 4L16 5L17 5L17 4ZM8 5L8 7L9 7L9 5ZM13 6L13 7L14 7L14 8L15 8L15 7L16 7L16 6L15 6L15 7L14 7L14 6ZM20 6L20 7L21 7L21 6ZM27 8L27 9L28 9L28 10L29 10L29 9L28 9L28 8ZM6 9L6 10L4 10L4 11L3 11L3 12L2 12L2 15L3 15L3 13L4 13L4 14L5 14L5 13L6 13L6 14L7 14L7 15L6 15L6 16L7 16L7 15L9 15L9 16L8 16L8 18L7 18L7 19L8 19L8 20L9 20L9 18L13 18L13 19L12 19L12 21L15 21L15 22L16 22L16 24L18 24L18 23L19 23L19 22L16 22L16 21L15 21L15 20L18 20L18 21L19 21L19 20L21 20L21 19L22 19L22 18L21 18L21 17L20 17L20 16L21 16L21 14L22 14L22 17L23 17L23 18L24 18L24 19L25 19L25 21L26 21L26 20L27 20L27 19L25 19L25 18L24 18L24 17L26 17L26 16L27 16L27 15L26 15L26 13L25 13L25 12L24 12L24 9L23 9L23 12L22 12L22 13L20 13L20 12L21 12L21 11L22 11L22 10L21 10L21 9L20 9L20 10L19 10L19 11L17 11L17 12L18 12L18 13L20 13L20 14L19 14L19 15L18 15L18 14L17 14L17 15L16 15L16 16L15 16L15 15L14 15L14 16L13 16L13 17L12 17L12 15L13 15L13 14L12 14L12 13L11 13L11 12L10 12L10 13L11 13L11 14L10 14L10 15L9 15L9 13L8 13L8 14L7 14L7 13L6 13L6 12L8 12L8 11L6 11L6 10L8 10L8 9ZM17 9L17 10L18 10L18 9ZM4 11L4 12L6 12L6 11ZM14 11L14 12L15 12L15 11ZM23 12L23 13L22 13L22 14L23 14L23 13L24 13L24 14L25 14L25 13L24 13L24 12ZM28 13L28 14L29 14L29 13ZM4 15L4 17L5 17L5 15ZM10 15L10 16L9 16L9 17L11 17L11 15ZM23 15L23 16L24 16L24 15ZM14 16L14 17L15 17L15 19L14 19L14 20L15 20L15 19L16 19L16 18L17 18L17 17L18 17L18 19L19 19L19 18L20 18L20 17L18 17L18 16L17 16L17 17L15 17L15 16ZM0 17L0 21L1 21L1 17ZM28 17L28 18L29 18L29 17ZM21 21L21 24L24 24L24 21ZM22 22L22 23L23 23L23 22ZM10 23L10 24L8 24L8 29L9 29L9 28L10 28L10 29L12 29L12 27L13 27L13 26L10 26L10 27L9 27L9 25L10 25L10 24L11 24L11 23ZM14 23L14 24L15 24L15 23ZM22 25L22 26L21 26L21 27L22 27L22 26L23 26L23 25ZM0 0L0 7L7 7L7 0ZM1 1L1 6L6 6L6 1ZM2 2L2 5L5 5L5 2ZM22 0L22 7L29 7L29 0ZM23 1L23 6L28 6L28 1ZM24 2L24 5L27 5L27 2ZM0 22L0 29L7 29L7 22ZM1 23L1 28L6 28L6 23ZM2 24L2 27L5 27L5 24Z" fill="#000000"/></g></g></svg>
