<?xml version="1.0" encoding="UTF-8"?>
<svg xmlns="http://www.w3.org/2000/svg" version="1.1" width="100" height="100" viewBox="0 0 100 100"><rect x="0" y="0" width="100" height="100" fill="#ffffff"/><g transform="scale(4)"><g transform="translate(0,0)"><path fill-rule="evenodd" d="M8 0L8 2L10 2L10 4L8 4L8 9L9 9L9 10L8 10L8 12L9 12L9 14L8 14L8 15L7 15L7 14L5 14L5 16L4 16L4 13L7 13L7 12L5 12L5 11L3 11L3 10L4 10L4 9L3 9L3 8L0 8L0 13L2 13L2 14L0 14L0 15L2 15L2 16L0 16L0 17L2 17L2 16L3 16L3 17L5 17L5 16L6 16L6 17L7 17L7 16L8 16L8 18L9 18L9 19L8 19L8 20L9 20L9 19L11 19L11 20L10 20L10 21L9 21L9 22L8 22L8 25L10 25L10 24L9 24L9 22L10 22L10 23L11 23L11 24L12 24L12 23L13 23L13 22L14 22L14 23L15 23L15 22L14 22L14 21L13 21L13 19L12 19L12 18L14 18L14 17L15 17L15 18L16 18L16 20L15 20L15 19L14 19L14 20L15 20L15 21L16 21L16 22L17 22L17 21L19 21L19 24L17 24L17 23L16 23L16 24L15 24L15 25L19 25L19 24L21 24L21 25L22 25L22 24L21 24L21 22L23 22L23 23L25 23L25 22L24 22L24 20L25 20L25 17L24 17L24 16L23 16L23 17L22 17L22 18L21 18L21 16L19 16L19 15L18 15L18 16L14 16L14 17L13 17L13 16L12 16L12 18L11 18L11 16L10 16L10 15L9 15L9 14L10 14L10 11L9 11L9 10L11 10L11 13L12 13L12 14L11 14L11 15L12 15L12 14L13 14L13 15L17 15L17 14L16 14L16 13L18 13L18 14L19 14L19 11L20 11L20 10L19 10L19 9L21 9L21 12L22 12L22 11L23 11L23 10L24 10L24 11L25 11L25 8L23 8L23 10L22 10L22 9L21 9L21 8L17 8L17 10L16 10L16 8L14 8L14 10L13 10L13 11L12 11L12 10L11 10L11 8L12 8L12 9L13 9L13 6L12 6L12 4L11 4L11 3L13 3L13 5L14 5L14 3L15 3L15 4L16 4L16 7L17 7L17 2L16 2L16 3L15 3L15 2L13 2L13 0L11 0L11 1L9 1L9 0ZM16 0L16 1L17 1L17 0ZM11 1L11 2L12 2L12 1ZM9 5L9 8L10 8L10 6L11 6L11 7L12 7L12 6L11 6L11 5ZM14 6L14 7L15 7L15 6ZM5 8L5 9L7 9L7 8ZM1 9L1 10L3 10L3 9ZM6 10L6 11L7 11L7 10ZM17 10L17 11L18 11L18 10ZM1 11L1 12L3 12L3 11ZM13 11L13 14L14 14L14 12L15 12L15 13L16 13L16 12L15 12L15 11ZM24 12L24 13L23 13L23 14L20 14L20 15L23 15L23 14L24 14L24 15L25 15L25 12ZM6 15L6 16L7 16L7 15ZM8 15L8 16L9 16L9 17L10 17L10 16L9 16L9 15ZM17 17L17 20L20 20L20 17ZM23 17L23 18L22 18L22 19L21 19L21 20L22 20L22 21L23 21L23 19L24 19L24 17ZM18 18L18 19L19 19L19 18ZM11 21L11 22L12 22L12 21ZM13 24L13 25L14 25L14 24ZM24 24L24 25L25 25L25 24ZM0 0L0 7L7 7L7 0ZM1 1L1 6L6 6L6 1ZM2 2L2 5L5 5L5 2ZM18 0L18 7L25 7L25 0ZM19 1L19 6L24 6L24 1ZM20 2L20 5L23 5L23 2ZM0 18L0 25L7 25L7 18ZM1 19L1 24L6 24L6 19ZM2 20L2 23L5 23L5 20Z" fill="#000000"/></g></g></svg>
