<?xml version="1.0" encoding="UTF-8"?>
<svg xmlns="http://www.w3.org/2000/svg" version="1.1" width="100" height="100" viewBox="0 0 100 100"><rect x="0" y="0" width="100" height="100" fill="#ffffff"/><g transform="scale(4)"><g transform="translate(0,0)"><path fill-rule="evenodd" d="M8 0L8 1L9 1L9 4L10 4L10 8L9 8L9 6L8 6L8 8L9 8L9 9L7 9L7 8L6 8L6 9L7 9L7 10L6 10L6 11L7 11L7 12L4 12L4 11L3 11L3 9L5 9L5 8L3 8L3 9L2 9L2 8L0 8L0 9L2 9L2 12L0 12L0 17L1 17L1 15L2 15L2 14L1 14L1 13L2 13L2 12L4 12L4 13L3 13L3 14L4 14L4 15L3 15L3 16L2 16L2 17L3 17L3 16L4 16L4 15L5 15L5 13L10 13L10 12L11 12L11 11L12 11L12 9L13 9L13 8L15 8L15 10L14 10L14 11L15 11L15 12L14 12L14 13L13 13L13 12L12 12L12 13L11 13L11 14L13 14L13 15L14 15L14 16L11 16L11 15L10 15L10 16L9 16L9 15L8 15L8 18L11 18L11 19L9 19L9 20L8 20L8 22L9 22L9 21L10 21L10 23L8 23L8 25L10 25L10 23L12 23L12 21L11 21L11 19L13 19L13 20L14 20L14 21L13 21L13 23L14 23L14 22L15 22L15 21L18 21L18 22L20 22L20 23L17 23L17 22L16 22L16 23L17 23L17 24L15 24L15 25L19 25L19 24L21 24L21 25L22 25L22 24L24 24L24 25L25 25L25 21L24 21L24 19L25 19L25 18L24 18L24 16L25 16L25 14L24 14L24 13L25 13L25 10L24 10L24 9L25 9L25 8L24 8L24 9L20 9L20 10L21 10L21 12L24 12L24 13L23 13L23 14L21 14L21 13L19 13L19 12L16 12L16 10L18 10L18 11L19 11L19 10L18 10L18 9L19 9L19 8L18 8L18 9L16 9L16 8L15 8L15 6L14 6L14 7L13 7L13 6L12 6L12 4L16 4L16 3L17 3L17 2L16 2L16 3L14 3L14 2L15 2L15 1L12 1L12 0L11 0L11 1L12 1L12 2L11 2L11 3L10 3L10 0ZM16 0L16 1L17 1L17 0ZM12 2L12 3L11 3L11 4L12 4L12 3L13 3L13 2ZM11 6L11 7L12 7L12 8L13 8L13 7L12 7L12 6ZM16 6L16 7L17 7L17 6ZM0 10L0 11L1 11L1 10ZM9 10L9 11L10 11L10 10ZM22 10L22 11L24 11L24 10ZM15 12L15 13L14 13L14 15L15 15L15 16L16 16L16 15L15 15L15 13L16 13L16 14L18 14L18 15L17 15L17 16L20 16L20 15L21 15L21 18L22 18L22 19L21 19L21 20L22 20L22 22L21 22L21 21L20 21L20 22L21 22L21 24L22 24L22 22L23 22L23 19L24 19L24 18L23 18L23 17L22 17L22 15L21 15L21 14L19 14L19 13L16 13L16 12ZM6 14L6 15L7 15L7 14ZM23 15L23 16L24 16L24 15ZM6 16L6 17L7 17L7 16ZM10 16L10 17L11 17L11 18L13 18L13 19L14 19L14 20L16 20L16 18L15 18L15 17L14 17L14 18L13 18L13 17L11 17L11 16ZM17 17L17 20L20 20L20 17ZM18 18L18 19L19 19L19 18ZM12 24L12 25L13 25L13 24ZM0 0L0 7L7 7L7 0ZM1 1L1 6L6 6L6 1ZM2 2L2 5L5 5L5 2ZM18 0L18 7L25 7L25 0ZM19 1L19 6L24 6L24 1ZM20 2L20 5L23 5L23 2ZM0 18L0 25L7 25L7 18ZM1 19L1 24L6 24L6 19ZM2 20L2 23L5 23L5 20Z" fill="#000000"/></g></g></svg>
