<?xml version="1.0" encoding="UTF-8"?>
<svg xmlns="http://www.w3.org/2000/svg" version="1.1" width="100" height="100" viewBox="0 0 100 100"><rect x="0" y="0" width="100" height="100" fill="#ffffff"/><g transform="scale(4)"><g transform="translate(0,0)"><path fill-rule="evenodd" d="M8 0L8 2L10 2L10 4L8 4L8 9L9 9L9 10L11 10L11 11L12 11L12 13L11 13L11 16L10 16L10 17L9 17L9 13L10 13L10 11L8 11L8 10L4 10L4 9L3 9L3 8L0 8L0 9L3 9L3 11L2 11L2 10L0 10L0 11L1 11L1 12L0 12L0 13L1 13L1 14L0 14L0 15L3 15L3 14L2 14L2 13L1 13L1 12L3 12L3 13L4 13L4 12L5 12L5 14L4 14L4 15L5 15L5 14L6 14L6 15L7 15L7 16L6 16L6 17L8 17L8 18L9 18L9 19L8 19L8 20L9 20L9 21L10 21L10 20L9 20L9 19L11 19L11 21L12 21L12 22L10 22L10 23L11 23L11 24L10 24L10 25L12 25L12 24L13 24L13 23L14 23L14 22L15 22L15 21L16 21L16 22L17 22L17 21L19 21L19 24L17 24L17 23L16 23L16 24L14 24L14 25L19 25L19 24L21 24L21 25L22 25L22 24L21 24L21 22L23 22L23 23L25 23L25 22L24 22L24 20L25 20L25 17L24 17L24 16L23 16L23 17L22 17L22 18L21 18L21 16L19 16L19 15L18 15L18 16L14 16L14 17L13 17L13 16L12 16L12 14L13 14L13 15L17 15L17 14L16 14L16 13L18 13L18 14L19 14L19 11L20 11L20 10L19 10L19 9L21 9L21 12L22 12L22 11L23 11L23 10L24 10L24 11L25 11L25 8L23 8L23 10L22 10L22 9L21 9L21 8L17 8L17 10L16 10L16 8L14 8L14 10L13 10L13 11L12 11L12 10L11 10L11 8L12 8L12 9L13 9L13 6L12 6L12 4L11 4L11 3L13 3L13 5L14 5L14 3L15 3L15 4L16 4L16 7L17 7L17 2L16 2L16 3L15 3L15 2L13 2L13 0L11 0L11 1L9 1L9 0ZM16 0L16 1L17 1L17 0ZM11 1L11 2L12 2L12 1ZM9 5L9 8L10 8L10 6L11 6L11 7L12 7L12 6L11 6L11 5ZM14 6L14 7L15 7L15 6ZM5 8L5 9L7 9L7 8ZM17 10L17 11L18 11L18 10ZM5 11L5 12L7 12L7 13L6 13L6 14L7 14L7 15L8 15L8 12L7 12L7 11ZM13 11L13 14L14 14L14 12L15 12L15 13L16 13L16 12L15 12L15 11ZM24 12L24 13L23 13L23 14L20 14L20 15L23 15L23 14L24 14L24 15L25 15L25 12ZM0 16L0 17L3 17L3 16ZM4 16L4 17L5 17L5 16ZM11 17L11 18L12 18L12 17ZM14 17L14 18L13 18L13 22L14 22L14 21L15 21L15 20L16 20L16 18L15 18L15 17ZM17 17L17 20L20 20L20 17ZM23 17L23 18L22 18L22 19L21 19L21 20L22 20L22 21L23 21L23 19L24 19L24 17ZM18 18L18 19L19 19L19 18ZM14 19L14 20L15 20L15 19ZM8 22L8 25L9 25L9 22ZM24 24L24 25L25 25L25 24ZM0 0L0 7L7 7L7 0ZM1 1L1 6L6 6L6 1ZM2 2L2 5L5 5L5 2ZM18 0L18 7L25 7L25 0ZM19 1L19 6L24 6L24 1ZM20 2L20 5L23 5L23 2ZM0 18L0 25L7 25L7 18ZM1 19L1 24L6 24L6 19ZM2 20L2 23L5 23L5 20Z" fill="#000000"/></g></g></svg>
