<?xml version="1.0" encoding="UTF-8"?>
<svg xmlns="http://www.w3.org/2000/svg" version="1.1" width="100" height="100" viewBox="0 0 100 100"><rect x="0" y="0" width="100" height="100" fill="#ffffff"/><g transform="scale(4)"><g transform="translate(0,0)"><path fill-rule="evenodd" d="M9 0L9 1L10 1L10 2L8 2L8 3L9 3L9 4L10 4L10 5L9 5L9 6L8 6L8 8L4 8L4 9L3 9L3 8L0 8L0 11L2 11L2 12L0 12L0 13L1 13L1 14L0 14L0 15L1 15L1 16L0 16L0 17L1 17L1 16L2 16L2 17L7 17L7 16L5 16L5 15L7 15L7 14L8 14L8 15L10 15L10 17L8 17L8 21L9 21L9 20L12 20L12 19L10 19L10 17L11 17L11 18L13 18L13 20L16 20L16 21L14 21L14 23L13 23L13 21L12 21L12 23L10 23L10 22L11 22L11 21L10 21L10 22L8 22L8 25L9 25L9 24L11 24L11 25L14 25L14 23L15 23L15 24L16 24L16 25L17 25L17 24L18 24L18 25L20 25L20 24L22 24L22 22L23 22L23 21L22 21L22 22L21 22L21 20L22 20L22 19L21 19L21 18L23 18L23 19L24 19L24 20L25 20L25 17L22 17L22 15L23 15L23 16L24 16L24 15L25 15L25 12L24 12L24 11L25 11L25 9L24 9L24 10L22 10L22 11L23 11L23 13L24 13L24 14L22 14L22 12L21 12L21 14L20 14L20 11L19 11L19 10L20 10L20 9L19 9L19 8L17 8L17 9L18 9L18 10L16 10L16 12L14 12L14 11L15 11L15 8L16 8L16 7L17 7L17 2L16 2L16 1L17 1L17 0L15 0L15 2L14 2L14 0L12 0L12 1L10 1L10 0ZM11 2L11 3L12 3L12 4L11 4L11 5L10 5L10 6L9 6L9 7L10 7L10 6L11 6L11 8L12 8L12 6L13 6L13 7L14 7L14 8L15 8L15 7L16 7L16 6L15 6L15 4L16 4L16 3L14 3L14 2L13 2L13 3L12 3L12 2ZM13 5L13 6L14 6L14 7L15 7L15 6L14 6L14 5ZM9 8L9 9L8 9L8 11L6 11L6 10L7 10L7 9L6 9L6 10L4 10L4 12L2 12L2 13L4 13L4 15L3 15L3 14L1 14L1 15L2 15L2 16L4 16L4 15L5 15L5 14L7 14L7 13L4 13L4 12L5 12L5 11L6 11L6 12L8 12L8 13L9 13L9 14L10 14L10 15L12 15L12 16L11 16L11 17L13 17L13 18L14 18L14 19L15 19L15 18L16 18L16 16L17 16L17 15L16 15L16 14L17 14L17 13L18 13L18 11L17 11L17 13L15 13L15 15L14 15L14 14L13 14L13 15L12 15L12 14L11 14L11 13L13 13L13 12L11 12L11 11L12 11L12 10L13 10L13 11L14 11L14 10L13 10L13 9L12 9L12 10L10 10L10 8ZM22 8L22 9L23 9L23 8ZM1 9L1 10L2 10L2 11L3 11L3 10L2 10L2 9ZM9 10L9 11L10 11L10 10ZM18 14L18 15L19 15L19 14ZM21 14L21 15L20 15L20 16L21 16L21 15L22 15L22 14ZM13 15L13 17L15 17L15 16L16 16L16 15L15 15L15 16L14 16L14 15ZM17 17L17 20L20 20L20 17ZM18 18L18 19L19 19L19 18ZM18 21L18 24L20 24L20 21ZM16 22L16 23L17 23L17 22ZM24 22L24 23L23 23L23 25L25 25L25 24L24 24L24 23L25 23L25 22ZM12 23L12 24L13 24L13 23ZM0 0L0 7L7 7L7 0ZM1 1L1 6L6 6L6 1ZM2 2L2 5L5 5L5 2ZM18 0L18 7L25 7L25 0ZM19 1L19 6L24 6L24 1ZM20 2L20 5L23 5L23 2ZM0 18L0 25L7 25L7 18ZM1 19L1 24L6 24L6 19ZM2 20L2 23L5 23L5 20Z" fill="#000000"/></g></g></svg>
